<svg width="16" height="17" viewBox="0 0 16 17" fill="none" xmlns="http://www.w3.org/2000/svg">
<path d="M14.9062 9.79688C15.0117 9.30469 15.082 8.77734 15.082 8.25C15.082 4.27734 11.8477 1.04297 7.875 1.04297C7.34766 1.04297 6.82031 1.11328 6.32812 1.21875C5.66016 0.691406 4.81641 0.375 3.9375 0.375C1.75781 0.375 0 2.16797 0 4.3125C0 5.22656 0.28125 6.07031 0.808594 6.73828C0.703125 7.23047 0.632812 7.75781 0.632812 8.25C0.632812 12.2578 3.86719 15.4922 7.83984 15.4922C8.36719 15.4922 8.89453 15.4219 9.38672 15.3164C10.0547 15.8438 10.8984 16.125 11.7773 16.125C13.957 16.125 15.7148 14.3672 15.7148 12.1875C15.75 11.3086 15.4336 10.4648 14.9062 9.79688ZM8.08594 13.0312C5.76562 13.0312 3.83203 12.0117 3.83203 10.7461C3.83203 10.1836 4.14844 9.65625 4.88672 9.65625C5.97656 9.65625 6.08203 11.2383 7.98047 11.2383C8.85938 11.2383 9.45703 10.8516 9.45703 10.3242C9.45703 9.65625 8.89453 9.55078 7.98047 9.33984C5.80078 8.77734 3.83203 8.56641 3.83203 6.28125C3.83203 4.17188 5.90625 3.39844 7.66406 3.39844C9.59766 3.39844 11.5664 4.17188 11.5664 5.36719C11.5664 5.96484 11.1797 6.49219 10.5117 6.49219C9.52734 6.49219 9.49219 5.29688 7.875 5.29688C6.96094 5.29688 6.39844 5.54297 6.39844 6.10547C6.39844 6.77344 7.13672 6.84375 8.82422 7.26562C10.2656 7.58203 12.0234 8.17969 12.0234 9.97266C12.0234 12.0469 10.0195 13.0312 8.08594 13.0312Z" fill="white"/>
</svg>
